<svg width="20" height="20" viewBox="0 0 20 20" fill="none" xmlns="http://www.w3.org/2000/svg">
<path d="M10 20C15.5228 20 20 15.5228 20 10C20 4.47715 15.5228 0 10 0C4.47715 0 0 4.47715 0 10C0 15.5228 4.47715 20 10 20Z" fill="url(#paint0_linear_1985_1810)"/>
<path d="M17.1588 10.122H15.3959C15.3959 6.52941 12.4734 3.61719 8.868 3.61719C5.30727 3.61719 2.41234 6.45811 2.34148 9.98917C2.26818 13.6392 5.70473 16.8087 9.36818 16.8087H9.829C13.0588 16.8087 17.3876 14.2893 18.064 11.2197C18.1889 10.6539 17.7404 10.122 17.1588 10.122ZM6.2483 10.2821C6.2483 10.7625 5.85395 11.1554 5.37182 11.1554C4.88968 11.1554 4.49536 10.7623 4.49536 10.2821V8.86917C4.49536 8.38876 4.88968 7.99582 5.37182 7.99582C5.85395 7.99582 6.2483 8.38876 6.2483 8.86917V10.2821ZM9.29171 10.2821C9.29171 10.7625 8.89741 11.1554 8.4153 11.1554C7.93312 11.1554 7.53883 10.7623 7.53883 10.2821V8.86917C7.53883 8.38876 7.9333 7.99582 8.4153 7.99582C8.89741 7.99582 9.29171 8.38876 9.29171 8.86917V10.2821Z" fill="url(#paint1_linear_1985_1810)"/>
<defs>
<linearGradient id="paint0_linear_1985_1810" x1="10" y1="0" x2="10" y2="20" gradientUnits="userSpaceOnUse">
<stop stop-color="#534BB1"/>
<stop offset="1" stop-color="#551BF9"/>
</linearGradient>
<linearGradient id="paint1_linear_1985_1810" x1="10.2126" y1="3.61719" x2="10.2126" y2="16.8087" gradientUnits="userSpaceOnUse">
<stop stop-color="white"/>
<stop offset="1" stop-color="white" stop-opacity="0.82"/>
</linearGradient>
</defs>
</svg>
